<?xml version="1.0" encoding="utf-8"?>
<!-- Generator: Adobe Illustrator 22.1.0, SVG Export Plug-In . SVG Version: 6.00 Build 0)  -->
<svg version="1.1" id="Layer_1" xmlns="http://www.w3.org/2000/svg" xmlns:xlink="http://www.w3.org/1999/xlink" x="0px" y="0px"
	 viewBox="0 0 500 115" style="enable-background:new 0 0 500 115;" xml:space="preserve">
<style type="text/css">
	.st0{fill:#2296F3;}
	.st1{fill:#FFFFFF;}
</style>
<g>
	<defs>
		<path id="SVGID_1_" d="M438.7-430.5c14.7,0,58.9,0,58.9,0H655v-115H102c86.8,0,124.3,11,176.1,57.5
			C324.9-446,380.4-430.5,438.7-430.5z"/>
	</defs>
	<clipPath id="SVGID_2_">
		<use xlink:href="#SVGID_1_"  style="overflow:visible;"/>
	</clipPath>
	<g style="clip-path:url(#SVGID_2_);">
		
			<image style="overflow:visible;" width="2880" height="6248" xlink:href="../../../Downloads/screencapture-covidash-2020-04-09-15_37_31.png"  transform="matrix(0.144 0 0 0.1481 85 -1013.2392)">
		</image>
	</g>
</g>
<path class="st0" d="M404.3-95.5c34.7,0,89.6,0,89.6,0H561v-84H83c75,0,118.7,17.4,167.9,46C299.1-105.5,336-95.5,404.3-95.5z"/>
<path class="st1" d="M493.8,84.5c0,0-54.9,0-89.6,0c-68.3,0-105.2-10-153.4-38C201.7,17.9,158,0.5,83,0.5H0v115h500v-31H493.8z"/>
</svg>
