<?xml version="1.0" encoding="utf-8"?>
<!-- Generator: Adobe Illustrator 22.1.0, SVG Export Plug-In . SVG Version: 6.00 Build 0)  -->
<svg version="1.1" id="Layer_1" xmlns="http://www.w3.org/2000/svg" xmlns:xlink="http://www.w3.org/1999/xlink" x="0px" y="0px"
	 viewBox="0 0 500 115" style="enable-background:new 0 0 500 115;" xml:space="preserve">
<style type="text/css">
	.st0{fill:#2296F3;}
	.st1{fill:#FFFFFF;}
	.st2{opacity:0.73;fill:url(#SVGID_3_);}
</style>
<g>
	<defs>
		<path id="SVGID_1_" d="M438.7-251.5c14.7,0,58.9,0,58.9,0H655v-115H102c86.8,0,124.3,11,176.1,57.5
			C324.9-267,380.4-251.5,438.7-251.5z"/>
	</defs>
	<clipPath id="SVGID_2_">
		<use xlink:href="#SVGID_1_"  style="overflow:visible;"/>
	</clipPath>
	<g style="clip-path:url(#SVGID_2_);">
		
			<image style="overflow:visible;" width="2880" height="6248" xlink:href="../../../Downloads/screencapture-covidash-2020-04-09-15_37_31.png"  transform="matrix(0.144 0 0 0.1481 85 -834.2392)">
		</image>
	</g>
</g>
<path class="st0" d="M404.3,83.5c34.7,0,89.6,0,89.6,0H561v-84H83c75,0,118.7,17.4,167.9,46C299.1,73.5,336,83.5,404.3,83.5z"/>
<path class="st1" d="M493.8,263.5c0,0-54.9,0-89.6,0c-68.3,0-105.2-10-153.4-38c-49.2-28.6-92.9-46-167.9-46H0v115h500v-31H493.8z"
	/>
<radialGradient id="SVGID_3_" cx="174.6667" cy="11.8333" r="399.7635" gradientTransform="matrix(0.9852 0.1715 -5.677897e-02 0.3261 3.2607 -21.9867)" gradientUnits="userSpaceOnUse">
	<stop  offset="0" style="stop-color:#1C79B7"/>
	<stop  offset="1" style="stop-color:#2296F3;stop-opacity:0"/>
</radialGradient>
<path class="st2" d="M404.3,83.5c34.7,0,89.6,0,89.6,0H561v-84H83c75,0,118.7,17.4,167.9,46C299.1,73.5,336,83.5,404.3,83.5z"/>
</svg>
